<?xml version="1.0" encoding="utf-8"?>
<!-- Generator: Adobe Illustrator 16.0.0, SVG Export Plug-In . SVG Version: 6.00 Build 0)  -->
<!DOCTYPE svg PUBLIC "-//W3C//DTD SVG 1.1//EN" "http://www.w3.org/Graphics/SVG/1.1/DTD/svg11.dtd">
<svg version="1.1" id="Capa_1" xmlns="http://www.w3.org/2000/svg" xmlns:xlink="http://www.w3.org/1999/xlink" x="0px" y="0px"
	 width="350.451px" height="350.451px" viewBox="0 0 350.451 350.451" enable-background="new 0 0 350.451 350.451"
	 xml:space="preserve">
<g>
	<g>
		<path fill="#6C9E10" d="M241.192,241.151c0,17.992,14.571,32.561,32.563,32.561c17.986,0,32.563-14.572,32.563-32.561
			c0-17.987-14.577-32.559-32.563-32.559C255.764,208.593,241.192,223.163,241.192,241.151z M259.597,241.151
			c0-7.82,6.34-14.152,14.159-14.152c7.818,0,14.153,6.332,14.153,14.152s-6.335,14.154-14.153,14.154
			C265.937,255.306,259.597,248.972,259.597,241.151z"/>
		<path fill="#6C9E10" d="M50.034,241.151c0,17.992,14.57,32.561,32.563,32.561c17.988,0,32.563-14.572,32.563-32.561
			c0-17.987-14.576-32.559-32.563-32.559C64.604,208.593,50.033,223.163,50.034,241.151z M68.437,241.151
			c0-7.82,6.342-14.152,14.16-14.152s14.154,6.332,14.154,14.152s-6.336,14.154-14.154,14.154
			C74.777,255.306,68.437,248.972,68.437,241.151z"/>
		<path fill="#6C9E10" d="M1.002,96.197v125.497c0,10.703,8.754,19.457,19.457,19.457h23.74c0-21.172,17.226-38.396,38.401-38.396
			c21.17,0,38.397,17.227,38.397,38.396h114.357c0-21.172,17.228-38.396,38.401-38.396c21.172,0,38.398,17.227,38.398,38.396h19.839
			c10.701,0,19.457-8.756,19.457-19.457v-44.75c0-10.702-1.751-28.036-3.893-38.521l-11.675-42.618
			c-2.141-10.485-12.646-19.064-23.348-19.064H20.453C9.752,76.741,0.996,85.496,1.002,96.197z M270.595,158.836l-0.001-70.435
			h38.543c8.026,0,15.791,6.457,17.256,14.348l10.46,41.74c1.239,6.676-2.422,12.309-8.437,13.89l-8.91-21.103
			c-1.252-2.969-4.675-4.361-7.646-3.107c-2.97,1.254-4.36,4.678-3.106,7.648l7.186,17.019H270.595L270.595,158.836z
			 M184.012,88.401h74.909v70.435h-74.909V88.401z M97.431,88.401h74.908v70.435H97.431V88.401z M12.928,102.995
			c0-8.026,6.568-14.593,14.596-14.593h58.233v70.435H27.523c-8.029,0-14.596-6.567-14.596-14.593V102.995z"/>
	</g>
</g>
</svg>
